# xmcd
#
# Track frame offsets:
#	151
#	12730
#	29654
#	41175
#	57274
#	70449
#	81371
#	94623
#	110652
#	124427
#
# Disc length: 1899 seconds
#
# Revision: 1
# Processed by: cddbd v1.5.2PL0 Copyright (c) Steve Scherf et al.
# Submitted via: audiograbber 1.83.01
#
DISCID=9707690a
DTITLE=Michelle Knight - Michelle Knight
DYEAR=1900
DGENRE=
TTITLE0=Where  Were You
TTITLE1=All I Am To You
TTITLE2=Wild Wild Rose
TTITLE3=In Broad Moonlight
TTITLE4=Walkin´ On The Blueside
TTITLE5=Bon Voyage
TTITLE6=Woman In The Moon
TTITLE7=Mr Right Or Mr Right Now
TTITLE8=Just For Love
TTITLE9=Her Secret 
EXTD=
EXTT0=
EXTT1=
EXTT2=
EXTT3=
EXTT4=
EXTT5=
EXTT6=
EXTT7=
EXTT8=
EXTT9=
PLAYORDER=
